<svg xmlns="http://www.w3.org/2000/svg" version="1.1" xmlns:xlink="http://www.w3.org/1999/xlink" xmlns:svgjs="http://svgjs.dev/svgjs" width="1000" height="1000" viewBox="0 0 1000 1000"><rect width="1000" height="1000" fill="#000000"></rect><g transform="matrix(0.7,0,0,0.7,149.57575757575756,419.58338068416185)"><svg viewBox="0 0 396 91" data-background-color="#ffffff" preserveAspectRatio="xMidYMid meet" height="229" width="1000" xmlns="http://www.w3.org/2000/svg" xmlns:xlink="http://www.w3.org/1999/xlink"><g id="tight-bounds" transform="matrix(1,0,0,1,0.2400000000000091,0.15135596911156313)"><svg viewBox="0 0 395.52 90.69727704403562" height="90.69727704403562" width="395.52"><g><svg viewBox="0 0 501.4641702888616 114.99149165742905" height="90.69727704403562" width="395.52"><g><rect width="4.832907772258249" height="99.84789434798469" x="88.45967148974934" y="7.57179865472218" fill="#ffffff" opacity="1" stroke-width="0" stroke="transparent" fill-opacity="1" class="rect-o-0" data-fill-palette-color="primary" rx="1%" id="o-0" data-palette-color="#f08131"></rect></g><g transform="matrix(1,0,0,1,105.94417028886164,15.892456517054235)"><svg viewBox="0 0 395.52 83.20657862332058" height="83.20657862332058" width="395.52"><g><svg viewBox="0 0 395.52 83.20657862332058" height="83.20657862332058" width="395.52"><g><svg viewBox="0 0 395.52 53.59117837837838" height="53.59117837837838" width="395.52"><g transform="matrix(1,0,0,1,0,0)"><svg width="395.52" viewBox="1 -36.099998474121094 277.4800109863281 37.599998474121094" height="53.59117837837838" data-palette-color="#f08131"><path d="M2.7-1.4L2.7-1.4 3.85-1.45Q4.9-1.45 5.6-3.2L5.6-3.2Q6.05-4.35 6.15-6.85 6.25-9.35 6.25-21.7L6.25-21.7 6.25-30.2Q6.25-31 5.75-32L5.75-32Q4.75-34.1 1.85-34.1L1.85-34.1Q1-34.1 1-34.7L1-34.7Q1-35.45 1.45-35.45L1.45-35.45 3.45-35.4 10.75-35.45 16.25-35.6Q20.8-35.6 23.85-33.43 26.9-31.25 26.9-27.25L26.9-27.25Q26.9-22.95 22.4-20.2L22.4-20.2Q21.9-19.85 21.9-19.8L21.9-19.8Q21.9-19.65 22.75-19.43 23.6-19.2 24.8-18.68 26-18.15 27.18-17.25 28.35-16.35 29.2-14.58 30.05-12.8 30.05-10.53 30.05-8.25 28.8-5.8 27.55-3.35 25.6-2 23.65-0.65 21.75-0.13 19.85 0.4 17.5 0.4 15.15 0.4 11.85 0.13 8.55-0.15 8.2-0.15L8.2-0.15 3.9 0.05 3.2 0.05Q2.15 0.05 2.15-0.68 2.15-1.4 2.7-1.4ZM10.1-10.2L10.1-6.8 10.05-4.6Q10.05-1.6 14.95-1.6L14.95-1.6 16.1-1.6Q18.8-1.6 20.78-1.93 22.75-2.25 24.28-4.3 25.8-6.35 25.8-9 25.8-11.65 24.9-13.43 24-15.2 22.85-16.1 21.7-17 20.1-17.5L20.1-17.5Q17.9-18.2 16-18.2L16-18.2 12.1-18.25 11.35-18.3Q10.9-18.3 10.7-18.18 10.5-18.05 10.3-17.2L10.3-17.2Q10.1-16.15 10.1-10.2L10.1-10.2ZM10.35-28.7L10.35-27.25Q10.35-20.95 10.7-20.25L10.7-20.25Q10.9-19.9 13.55-19.9L13.55-19.9 16.75-19.9Q19.9-19.9 21.48-21.55 23.05-23.2 23.05-25.9 23.05-28.6 20.43-31.23 17.8-33.85 12.95-33.85L12.95-33.85Q11.4-33.85 10.88-32.93 10.35-32 10.35-28.7L10.35-28.7ZM33.7-16.95L33.7-16.95Q33.7-25.35 38.75-30.73 43.8-36.1 53.05-36.1L53.05-36.1Q57.35-36.1 60.8-34.85 64.25-33.6 66.25-31.78 68.25-29.95 69.6-27.6L69.6-27.6Q71.95-23.5 71.95-19.6L71.95-19.6Q71.95-12.8 69.3-8.1L69.3-8.1Q64.25 0.8 52.35 0.8L52.35 0.8Q46.4 0.8 42.07-1.8 37.75-4.4 35.72-8.35 33.7-12.3 33.7-16.95ZM38.1-19.5L38.1-19.5Q38.1-15.05 40.45-10.4L40.45-10.4Q41.7-7.9 43.47-5.93 45.25-3.95 47.97-2.68 50.7-1.4 53.95-1.4L53.95-1.4Q57.65-1.4 61.25-3.55L61.25-3.55Q65.25-5.9 66.9-10.1L66.9-10.1Q67.85-12.35 67.85-15L67.85-15Q67.85-24.05 63.1-29.08 58.35-34.1 51.35-34.1L51.35-34.1Q45.85-34.1 41.97-30.4 38.1-26.7 38.1-19.5ZM76.35-16.95L76.35-16.95Q76.35-25.35 81.4-30.73 86.45-36.1 95.7-36.1L95.7-36.1Q100-36.1 103.45-34.85 106.9-33.6 108.9-31.78 110.9-29.95 112.25-27.6L112.25-27.6Q114.6-23.5 114.6-19.6L114.6-19.6Q114.6-12.8 111.95-8.1L111.95-8.1Q106.9 0.8 95 0.8L95 0.8Q89.05 0.8 84.72-1.8 80.4-4.4 78.37-8.35 76.35-12.3 76.35-16.95ZM80.75-19.5L80.75-19.5Q80.75-15.05 83.1-10.4L83.1-10.4Q84.35-7.9 86.12-5.93 87.9-3.95 90.62-2.68 93.35-1.4 96.6-1.4L96.6-1.4Q100.3-1.4 103.9-3.55L103.9-3.55Q107.9-5.9 109.55-10.1L109.55-10.1Q110.5-12.35 110.5-15L110.5-15Q110.5-24.05 105.75-29.08 101-34.1 94-34.1L94-34.1Q88.5-34.1 84.62-30.4 80.75-26.7 80.75-19.5ZM122.74-13.4L122.74-20.1 122.64-25.5 122.64-27.8Q122.64-30.35 122.49-31.5 122.34-32.65 121.22-33.3 120.09-33.95 118.94-34 117.79-34.05 117.79-34.73 117.79-35.4 119.19-35.4L119.19-35.4 124.84-35.3 129.14-35.4Q129.99-35.4 129.99-34.75L129.99-34.75Q129.99-34.45 129.27-34.15 128.54-33.85 128.24-33.7L128.24-33.7Q126.69-32.8 126.69-27.6L126.69-27.6 126.54-19.8Q126.54-18.75 126.94-18.75 127.34-18.75 130.99-21.73 134.64-24.7 138.24-28.18 141.84-31.65 141.84-32.75L141.84-32.75Q141.84-33.35 141.34-33.58 140.84-33.8 140.59-33.88 140.34-33.95 139.89-34.02 139.44-34.1 139.34-34.15L139.34-34.15Q138.79-34.25 138.79-34.83 138.79-35.4 139.59-35.4L139.59-35.4 140.84-35.35 143.84-35.25 150.04-35.4Q151.04-35.4 151.04-34.75L151.04-34.75Q151.04-34.4 150.74-34.23 150.44-34.05 149.59-33.8 148.74-33.55 148.32-33.38 147.89-33.2 145.69-31.8L145.69-31.8Q145.24-31.5 140.77-27.73 136.29-23.95 131.34-19.8L131.34-19.8 130.79-19.1Q130.79-18.85 132.24-17.4 133.69-15.95 139.04-10.65 144.39-5.35 146.44-3.63 148.49-1.9 150.14-1.65 151.79-1.4 151.99-1L151.99-1Q152.04-0.9 152.04-0.58 152.04-0.25 151.62-0.15 151.19-0.05 149.14-0.05L149.14-0.05 144.29-0.05Q143.49-0.05 143.09-0.53 142.69-1 142.29-1.4L142.29-1.4Q140.44-3.55 139.44-4.55L139.44-4.55Q128.84-15.3 128.29-15.75L128.29-15.75Q127.74-16.2 127.34-16.2L127.34-16.2Q126.64-16.2 126.64-14.85L126.64-14.85 126.64-14.7 126.69-13.55 126.69-11Q126.69-4.45 127.54-2.98 128.39-1.5 130.79-1.5L130.79-1.5 131.19-1.45Q131.54-1.45 131.89-1.28 132.24-1.1 132.24-0.7L132.24-0.7Q132.24 0 130.99 0L130.99 0 126.24-0.2 120.74 0.05Q118.94 0.05 118.94-0.5L118.94-0.5 118.94-0.7Q118.94-1.05 119.39-1.2L119.39-1.2Q121.24-1.65 121.82-2.23 122.39-2.8 122.57-5.33 122.74-7.85 122.74-13.4L122.74-13.4ZM159.04-17.25L159.04-20.1 159.09-25.5Q159.09-29.3 158.79-31.45L158.79-31.45Q158.64-32.7 157.47-33.4 156.29-34.1 155.42-34.1 154.54-34.1 154.27-34.43 153.99-34.75 153.99-34.95L153.99-34.95Q153.99-35.5 155.39-35.5L155.39-35.5 161.04-35.3 165.44-35.4Q166.54-35.4 166.54-34.7L166.54-34.7Q166.54-33.85 164.79-33.85L164.79-33.85Q163.79-33.85 163.34-31.8 162.89-29.75 162.89-27.6L162.89-27.6 162.89-25.75 162.79-21.15Q162.79-19.9 163.09-19.55 163.39-19.2 164.49-19.2L164.49-19.2 172.69-19.25Q172.69-19.25 182.14-19.15L182.14-19.15Q182.69-19.15 182.69-26.1L182.69-26.1 182.69-28.8Q182.69-32.55 181.19-33.4L181.19-33.4Q180.59-33.75 179.97-33.85 179.34-33.95 178.92-34.13 178.49-34.3 178.49-34.8 178.49-35.3 180.44-35.3L180.44-35.3 185.29-35.2 189.19-35.3Q190.34-35.3 190.34-34.65 190.34-34 189.64-34L189.64-34Q188.24-34 187.52-33.15 186.79-32.3 186.79-30.9L186.79-30.9 186.54-11.25 186.54-9.4 186.74-4.8Q186.74-1.55 190.94-1.1L190.94-1.1Q191.54-1.1 191.54-0.55L191.54-0.55Q191.54-0.2 191.04-0.1 190.54 0 189.09 0L189.09 0 185.24-0.25 180.54 0 179.69 0Q178.99 0 178.87-0.2 178.74-0.4 178.74-0.68 178.74-0.95 179.24-1.2 179.74-1.45 180.34-1.6 180.94-1.75 181.49-2.2L181.49-2.2Q182.54-2.95 182.54-6.9L182.54-6.9 182.69-15.75Q182.69-16.5 182.09-16.8 181.49-17.1 180.14-17.1 178.79-17.1 176.09-17L176.09-17 173.39-16.95 164.19-17.1Q163.44-17.1 163.19-16.8 162.94-16.5 162.94-15.25L162.94-15.25 162.74-9.1 162.74-6.95Q162.74-4.8 163.14-3.75 163.54-2.7 165.09-1.7L165.09-1.7Q165.49-1.45 166.54-1.45L166.54-1.45Q168.19-1.45 168.19-0.9L168.19-0.9Q168.19 0 166.59 0L166.59 0 162.44-0.2 157.04 0.05Q154.69 0.05 154.69-0.7L154.69-0.7Q154.69-1.4 156.24-1.6L156.24-1.6Q156.84-1.65 157.49-2.23 158.14-2.8 158.34-3.78 158.54-4.75 158.79-9.05 159.04-13.35 159.04-17.25L159.04-17.25ZM198.49-17.25L198.49-20.1 198.54-25.5 198.54-27.8Q198.54-30 198.36-31.33 198.19-32.65 197.01-33.3 195.84-33.95 194.69-34 193.54-34.05 193.54-34.77 193.54-35.5 194.94-35.5L194.94-35.5 200.59-35.3 204.99-35.4Q206.34-35.4 206.34-34.7L206.34-34.7Q206.34-34.3 204.04-33.35L204.04-33.35Q202.44-32.7 202.44-27.6L202.44-27.6 202.29-9.1Q202.29-4.9 203.46-3.2 204.64-1.5 205.94-1.5L205.94-1.5 206.94-1.45Q207.29-1.45 207.64-1.28 207.99-1.1 207.99-0.7L207.99-0.7Q207.99 0 206.74 0L206.74 0 201.99-0.2 196.49 0.05Q194.24 0.05 194.24-0.7L194.24-0.7Q194.24-1.4 195.79-1.6L195.79-1.6Q196.39-1.65 197.04-2.23 197.69-2.8 197.86-3.53 198.04-4.25 198.26-9.58 198.49-14.9 198.49-17.25L198.49-17.25ZM239.74-35.5L242.89-35.45 247.34-35.55Q248.29-35.55 248.29-34.85L248.29-34.85Q248.29-34.3 247.19-33.8L247.19-33.8Q246.74-33.6 246.14-32.95 245.54-32.3 245.09-31.25L245.09-31.25 233.94-5.85Q232.74-3.15 231.89-1.07 231.04 1 230.89 1.25 230.74 1.5 230.49 1.5L230.49 1.5Q229.59 1.5 228.26-1.85 226.94-5.2 224.06-11.45 221.19-17.7 219.64-21.2 218.09-24.7 217.41-26.35 216.74-28 216.14-29.3L216.14-29.3Q215.24-31.45 214.49-32.27 213.74-33.1 212.81-33.5 211.89-33.9 211.34-33.9L211.34-33.9Q209.94-33.8 209.94-34.8L209.94-34.8Q209.94-35.5 211.34-35.5L211.34-35.5 216.84-35.3 220.09-35.4Q221.24-35.4 221.49-35.3 221.74-35.2 221.74-34.88 221.74-34.55 221.24-34.3L221.24-34.3Q219.69-33.5 219.69-32.68 219.69-31.85 219.86-31.18 220.04-30.5 220.64-29.1 221.24-27.7 221.86-26.3 222.49-24.9 223.91-21.78 225.34-18.65 226.69-15.6L226.69-15.6Q230.89-5.95 231.69-5.95L231.69-5.95Q231.94-5.95 234.56-12 237.19-18.05 239.74-24.65 242.29-31.25 242.29-32.25 242.29-33.25 241.71-33.68 241.14-34.1 240.49-34.2L240.49-34.2Q238.69-34.4 238.69-35L238.69-35Q238.69-35.35 238.86-35.43 239.04-35.5 239.74-35.5L239.74-35.5ZM255.08-11.55L255.08-17.75 255.23-26.4Q255.23-27.75 255.13-30.95L255.13-30.95Q255.08-32.4 253.88-33.2 252.68-34 251.08-34.05L251.08-34.05Q250.28-34.05 250.28-34.95L250.28-34.95Q250.28-35.65 251.68-35.65L251.68-35.65 253.03-35.55 265.23-35.3 275.23-35.5Q276.18-35.5 276.18-34.35L276.18-34.35Q276.18-34.05 275.88-32.38 275.58-30.7 275.58-29.75L275.58-29.75Q275.58-28.15 274.81-28.15 274.03-28.15 274.03-29.35 274.03-30.55 273.18-31.65 272.33-32.75 271.08-32.8L271.08-32.8Q266.58-33.15 264.18-33.15L264.18-33.15 262.88-33.15Q260.28-33.15 259.88-32.8L259.88-32.8Q259.13-32.15 259.13-21.75L259.13-21.75Q259.13-19.25 260.08-19.2L260.08-19.2 264.98-19.2Q267.98-19.2 268.98-19.4L268.98-19.4Q271.58-19.9 271.93-22L271.93-22Q272.08-22.85 272.58-22.85 273.08-22.85 273.18-22.7 273.28-22.55 273.28-22.05L273.28-22.05 272.88-16.8 273.03-13.75Q273.03-12.5 272.68-12.5L272.68-12.5Q271.93-12.5 271.58-13.7L271.58-13.7Q270.88-15.8 270.33-16.15L270.33-16.15Q269.28-16.85 266.68-16.85L266.68-16.85 263.08-16.85 261.48-16.9 261.13-16.9Q259.08-16.9 259.08-15.95L259.08-15.95 258.98-8.75 258.98-6.75Q258.98-3.15 260.21-2.78 261.43-2.4 262.33-2.4L262.33-2.4Q269.83-2.4 273.18-3.6L273.18-3.6Q276.13-4.7 276.78-5.9L276.78-5.9Q277.38-7.15 277.88-7.15L277.88-7.15Q278.48-7.15 278.48-6.3L278.48-6.3Q278.48-4.15 276.33-1.95 274.18 0.25 272.58 0.25L272.58 0.25Q268.98 0.25 264.46 0 259.93-0.25 258.83-0.25L258.83-0.25 252.03 0.2Q250.98 0.2 250.98-0.3L250.98-0.3 250.98-0.9Q250.98-1.2 251.48-1.3L251.48-1.3Q252.03-1.35 253.18-1.9 254.33-2.45 254.71-4.2 255.08-5.95 255.08-11.55L255.08-11.55Z" opacity="1" transform="matrix(1,0,0,1,0,0)" fill="#ffffff" class="undefined-text-0" data-fill-palette-color="primary" id="text-0"></path></svg></g></svg></g><g transform="matrix(1,0,0,1,0,66.24276940523244)"><svg viewBox="0 0 232.209792 16.96380921808815" height="16.96380921808815" width="232.209792"><g transform="matrix(1,0,0,1,0,0)"><svg width="232.209792" viewBox="3.200000047683716 -38.349998474121094 698.72998046875 51.04999923706055" height="16.96380921808815" data-palette-color="#f08131"><path d="M31.15 5.05L31.15 5.05Q27.75 5.05 27.75 0.9L27.75 0.9 27.75-3.85Q26.3-2 23.85-0.78 21.4 0.45 18.35 0.45L18.35 0.45Q12.1 0.45 7.65-4.05 3.2-8.55 3.2-16.35L3.2-16.35Q3.2-25.3 8.4-30.93 13.6-36.55 22.2-36.55L22.2-36.55Q27.1-36.55 30.25-34.58 33.4-32.6 33.4-29.9L33.4-29.9Q33.4-28.55 32.35-27.7 31.3-26.85 29.9-26.85 28.5-26.85 27.45-27.4L27.45-27.4Q27.5-27.7 27.5-28.05L27.5-28.05Q27.5-30.1 25.9-31.55 24.3-33 21.05-33L21.05-33Q15.5-33 12.23-28.88 8.95-24.75 8.93-17.9 8.9-11.05 11.7-7.45 14.5-3.85 19.5-3.85L19.5-3.85Q25.3-3.85 27.8-9.05L27.8-9.05 27.85-15.05 25.3-15.05Q22.6-15.05 19.6-14.85L19.6-14.85Q18.95-15.75 18.95-16.75L18.95-16.75Q18.95-18.1 20.7-18.65 22.45-19.2 26.58-19.2 30.7-19.2 31.9-18.32 33.1-17.45 33.1-15.15L33.1-15.15 33 0.9Q33 2.7 34.35 3.3L34.35 3.3Q33.2 5.05 31.15 5.05ZM44.8-15L52.95-15.75Q54.9-15.9 54.9-18 54.9-20.1 53.77-21.48 52.65-22.85 50.6-22.85 48.55-22.85 46.87-20.8 45.2-18.75 44.8-15L44.8-15ZM44.65-12.35Q44.7-7.8 46.72-5.63 48.75-3.45 52.47-3.45 56.2-3.45 59-6.25L59-6.25Q59.85-5.8 59.85-4.7L59.85-4.7Q59.85-2.85 57.3-1.2 54.75 0.45 51.3 0.45L51.3 0.45Q45.9 0.45 42.6-2.78 39.3-6 39.3-11.95 39.3-17.9 42.9-22 46.5-26.1 51.45-26.1L51.45-26.1Q55.35-26.1 57.8-23.48 60.25-20.85 60.25-17.5L60.25-17.5Q60.25-15.05 58.97-13.9 57.7-12.75 54.75-12.7L54.75-12.7 44.65-12.35ZM72.3-21.95L71.7-21.95 71.7-6.8Q71.7-5 72.37-4.23 73.05-3.45 74.6-3.45L74.6-3.45Q77.65-3.45 80.2-6L80.2-6Q81.3-5.8 81.3-4.2 81.3-2.6 79.02-1.07 76.75 0.45 73.42 0.45 70.1 0.45 68.27-1.28 66.45-3 66.45-6.4L66.45-6.4 66.45-21.95Q64.4-22 63.45-22.63 62.5-23.25 62.5-24.25 62.5-25.25 63.25-25.8L63.25-25.8Q64.65-25.6 65.9-25.6L65.9-25.6 66.45-25.6 66.45-28.9Q66.45-30.7 65.05-31.3L65.05-31.3Q66.25-33.05 68.2-33.05L68.2-33.05Q71.7-33.05 71.7-28.85L71.7-28.85 71.7-25.6 79.8-25.6Q80.1-25.15 80.1-24.7L80.1-24.7Q80.1-21.95 72.3-21.95L72.3-21.95ZM101.24-7.05L101.24-7.05 101.24-32.45Q101.24-34.2 99.89-34.8L99.89-34.8Q101.14-36.55 103.09-36.55L103.09-36.55Q106.54-36.55 106.54-32.4L106.54-32.4 106.54-7.45Q106.54-5.6 107.34-4.8 108.14-4 109.94-4L109.94-4 117.29-4Q120.24-4 121.74-6.05L121.74-6.05Q123.09-5.5 123.09-3.83 123.09-2.15 121.69-1.07 120.29 0 117.39 0L117.39 0 109.19 0Q104.99 0 103.12-1.6 101.24-3.2 101.24-7.05ZM144.44-20.38Q142.34-23 139.21-23 136.09-23 134.44-20.7 132.79-18.4 132.79-14.1L132.79-14.1Q132.79-7.95 134.94-5.28 137.09-2.6 140.19-2.6 143.29-2.6 144.91-4.95 146.54-7.3 146.54-11.55L146.54-11.55Q146.54-17.75 144.44-20.38ZM127.49-12.83Q127.49-19.15 130.99-22.63 134.49-26.1 139.66-26.1 144.84-26.1 148.34-22.6 151.84-19.1 151.84-12.8 151.84-6.5 148.34-3.03 144.84 0.45 139.69 0.45 134.54 0.45 131.01-3.03 127.49-6.5 127.49-12.83ZM176.74-20.8L176.74-20.8Q176.74-19.55 175.89-18.82 175.04-18.1 173.71-18.1 172.39-18.1 171.34-18.85L171.34-18.85Q171.59-19.35 171.59-20.35 171.59-21.35 170.54-22.15 169.49-22.95 167.46-22.95 165.44-22.95 164.24-22.05 163.04-21.15 163.04-19.83 163.04-18.5 164.51-17.43 165.99-16.35 168.09-15.43 170.19-14.5 172.31-13.45 174.44-12.4 175.91-10.75 177.39-9.1 177.39-7.1L177.39-7.1Q177.39-3.9 174.41-1.73 171.44 0.45 166.96 0.45 162.49 0.45 159.64-1.23 156.79-2.9 156.74-5.5L156.74-5.5Q156.74-7.15 157.74-8.08 158.74-9 160.21-9 161.69-9 162.64-7.9L162.64-7.9Q161.89-7 161.89-5.7 161.89-4.4 163.16-3.55 164.44-2.7 166.81-2.7 169.19-2.7 170.64-3.7 172.09-4.7 172.09-6.2 172.09-7.7 170.61-8.83 169.14-9.95 167.06-10.85 164.99-11.75 162.89-12.75 160.79-13.75 159.31-15.3 157.84-16.85 157.84-18.8L157.84-18.8Q157.84-21.85 160.61-23.98 163.39-26.1 167.29-26.1 171.19-26.1 173.96-24.63 176.74-23.15 176.74-20.8ZM190.08-21.95L189.48-21.95 189.48-6.8Q189.48-5 190.16-4.23 190.83-3.45 192.38-3.45L192.38-3.45Q195.43-3.45 197.98-6L197.98-6Q199.08-5.8 199.08-4.2 199.08-2.6 196.81-1.07 194.53 0.45 191.21 0.45 187.88 0.45 186.06-1.28 184.23-3 184.23-6.4L184.23-6.4 184.23-21.95Q182.18-22 181.23-22.63 180.28-23.25 180.28-24.25 180.28-25.25 181.03-25.8L181.03-25.8Q182.43-25.6 183.68-25.6L183.68-25.6 184.23-25.6 184.23-28.9Q184.23-30.7 182.83-31.3L182.83-31.3Q184.03-33.05 185.98-33.05L185.98-33.05Q189.48-33.05 189.48-28.85L189.48-28.85 189.48-25.6 197.58-25.6Q197.88-25.15 197.88-24.7L197.88-24.7Q197.88-21.95 190.08-21.95L190.08-21.95ZM221.03-37.3Q222.48-37.3 223.45-36.43 224.43-35.55 224.43-34.1 224.43-32.65 223.18-31.48 221.93-30.3 220.35-30.3 218.78-30.3 217.83-31.2 216.88-32.1 216.88-33.63 216.88-35.15 218.23-36.23 219.58-37.3 221.03-37.3ZM223.43-21.85L223.43-21.85 223.43-3.7Q223.43-1.9 224.83-1.3L224.83-1.3Q223.53 0.45 221.63 0.45L221.63 0.45Q218.23 0.45 218.23-3.75L218.23-3.75 218.23-21.9Q218.23-23.65 216.83-24.35L216.83-24.35Q218.13-26.1 220.03-26.1L220.03-26.1Q223.43-26.1 223.43-21.85ZM253.83-17.35L253.83-17.35 253.83-3.7Q253.83-1.9 255.23-1.3L255.23-1.3Q253.93 0.45 252.03 0.45L252.03 0.45Q248.63 0.45 248.63-3.75L248.63-3.75 248.63-16.85Q248.63-21.7 244.38-21.7L244.38-21.7Q242.13-21.7 240.1-19.8 238.08-17.9 237.28-14.65L237.28-14.65 237.28-3.7Q237.28-1.9 238.68-1.3L238.68-1.3Q237.38 0.45 235.48 0.45L235.48 0.45Q232.08 0.45 232.08-3.75L232.08-3.75 232.08-21.9Q232.08-23.65 230.68-24.35L230.68-24.35Q231.98-26.1 233.88-26.1L233.88-26.1Q237.28-26.1 237.28-21.85L237.28-21.85 237.28-20.2Q238.58-22.9 240.98-24.5 243.38-26.1 246.58-26.1 249.78-26.1 251.8-23.9 253.83-21.7 253.83-17.35ZM284.17-6.95Q287.27-3.15 292.07-3.15 296.87-3.15 299.47-7.45L299.47-7.45Q301.67-11 301.67-16.3L301.67-16.3Q301.67-17.4 301.57-18.6L301.57-18.6Q301.12-25.35 298.02-29.18 294.92-33 290.1-33 285.27-33 282.67-28.7L282.67-28.7Q280.47-25.1 280.47-19.8L280.47-19.8Q280.47-11.5 284.17-6.95L284.17-6.95ZM291.12-36.55Q298.62-36.55 302.77-31.55 306.92-26.55 306.92-18.13 306.92-9.7 302.75-4.63 298.57 0.45 291.1 0.45 283.62 0.45 279.4-4.6 275.17-9.65 275.17-18.05 275.17-26.45 279.4-31.5 283.62-36.55 291.12-36.55ZM336.62-21.85L336.62-21.85 336.62-3.7Q336.62-1.9 338.02-1.3L338.02-1.3Q336.72 0.45 334.82 0.45L334.82 0.45Q331.42 0.45 331.42-3.75L331.42-3.75 331.42-4.1Q328.72 0.45 323.57 0.45L323.57 0.45Q319.42 0.45 317.14-1.73 314.87-3.9 314.87-8.25L314.87-8.25 314.87-21.9Q314.87-23.65 313.47-24.35L313.47-24.35Q314.77-26.1 316.67-26.1L316.67-26.1Q320.07-26.1 320.07-21.85L320.07-21.85 320.07-8.65Q320.07-3.8 324.92-3.8L324.92-3.8Q327.12-3.8 328.82-5.08 330.52-6.35 331.42-8.75L331.42-8.75 331.42-21.9Q331.42-23.65 330.02-24.35L330.02-24.35Q331.42-26.1 333.22-26.1L333.22-26.1Q336.62-26.1 336.62-21.85ZM350.37-21.85L350.37-21.85 350.37-20.85Q352.37-26.1 357.22-26.1L357.22-26.1Q359.62-26.1 360.97-24.85 362.32-23.6 362.32-21.78 362.32-19.95 361.39-18.98 360.47-18 358.97-18L358.97-18Q358.92-18 357.72-18.15L357.72-18.15Q357.87-18.9 357.87-19.78 357.87-20.65 357.19-21.33 356.52-22 355.17-22 353.82-22 352.39-20.53 350.97-19.05 350.37-15.9L350.37-15.9 350.37-3.7Q350.37-1.9 351.77-1.3L351.77-1.3Q350.47 0.45 348.57 0.45L348.57 0.45Q345.17 0.45 345.17-3.75L345.17-3.75 345.17-21.9Q345.17-23.65 343.77-24.35L343.77-24.35Q345.07-26.1 346.97-26.1L346.97-26.1Q350.37-26.1 350.37-21.85ZM410.36-32.4L410.36-32.4 410.36-3.7Q410.36-1.85 411.71-1.3L411.71-1.3Q410.41 0.45 408.51 0.45L408.51 0.45Q405.11 0.45 405.11-3.75L405.11-3.75 405.11-16.3 386.81-16.3 386.81-3.7Q386.81-1.9 388.16-1.3L388.16-1.3Q386.96 0.45 384.96 0.45L384.96 0.45Q381.56 0.45 381.56-3.75L381.56-3.75 381.56-32.45Q381.56-34.2 380.21-34.8L380.21-34.8Q381.36-36.55 383.36-36.55L383.36-36.55Q386.81-36.55 386.81-32.4L386.81-32.4 386.81-20 405.11-20 405.11-32.45Q405.11-34.2 403.76-34.8L403.76-34.8Q404.91-36.55 406.91-36.55L406.91-36.55Q410.36-36.55 410.36-32.4ZM422.66-37.3Q424.11-37.3 425.08-36.43 426.06-35.55 426.06-34.1 426.06-32.65 424.81-31.48 423.56-30.3 421.98-30.3 420.41-30.3 419.46-31.2 418.51-32.1 418.51-33.63 418.51-35.15 419.86-36.23 421.21-37.3 422.66-37.3ZM425.06-21.85L425.06-21.85 425.06-3.7Q425.06-1.9 426.46-1.3L426.46-1.3Q425.16 0.45 423.26 0.45L423.26 0.45Q419.86 0.45 419.86-3.75L419.86-3.75 419.86-21.9Q419.86-23.65 418.46-24.35L418.46-24.35Q419.76-26.1 421.66-26.1L421.66-26.1Q425.06-26.1 425.06-21.85ZM442.81-3.1L449.16-20.7Q449.66-22 449.66-23.18 449.66-24.35 448.96-25.2L448.96-25.2Q450.26-26.1 451.66-26.1 453.06-26.1 453.88-25.3 454.71-24.5 454.71-23.33 454.71-22.15 454.06-20.4L454.06-20.4 447.46-3.85Q446.56-1.5 445.56-0.55 444.56 0.4 442.71 0.4 440.86 0.4 439.81-0.55 438.76-1.5 438.01-3.85L438.01-3.85 432.26-21.25Q431.56-23.25 430.16-23.6L430.16-23.6Q430.36-24.7 431.33-25.4 432.31-26.1 433.51-26.1L433.51-26.1Q436.56-26.1 437.56-22.3L437.56-22.3 442.81-3.1ZM463.8-15L471.95-15.75Q473.9-15.9 473.9-18 473.9-20.1 472.78-21.48 471.65-22.85 469.6-22.85 467.55-22.85 465.88-20.8 464.2-18.75 463.8-15L463.8-15ZM463.65-12.35Q463.7-7.8 465.73-5.63 467.75-3.45 471.48-3.45 475.2-3.45 478-6.25L478-6.25Q478.85-5.8 478.85-4.7L478.85-4.7Q478.85-2.85 476.3-1.2 473.75 0.45 470.3 0.45L470.3 0.45Q464.9 0.45 461.6-2.78 458.3-6 458.3-11.95 458.3-17.9 461.9-22 465.5-26.1 470.45-26.1L470.45-26.1Q474.35-26.1 476.8-23.48 479.25-20.85 479.25-17.5L479.25-17.5Q479.25-15.05 477.98-13.9 476.7-12.75 473.75-12.7L473.75-12.7 463.65-12.35ZM514.05-20.38Q511.95-23 508.82-23 505.7-23 504.05-20.7 502.4-18.4 502.4-14.1L502.4-14.1Q502.4-7.95 504.55-5.28 506.7-2.6 509.8-2.6 512.9-2.6 514.52-4.95 516.15-7.3 516.15-11.55L516.15-11.55Q516.15-17.75 514.05-20.38ZM497.1-12.83Q497.1-19.15 500.6-22.63 504.1-26.1 509.27-26.1 514.45-26.1 517.95-22.6 521.45-19.1 521.45-12.8 521.45-6.5 517.95-3.03 514.45 0.45 509.3 0.45 504.15 0.45 500.62-3.03 497.1-6.5 497.1-12.83ZM529.6-23.55L529.89-23.55 529.89-30.15Q529.89-34.1 532.12-36.23 534.35-38.35 537.5-38.35 540.64-38.35 542.37-37.1 544.1-35.85 544.1-34.33 544.1-32.8 543.04-32.5L543.04-32.5Q541.14-34.65 538.75-34.65L538.75-34.65Q535.14-34.65 535.14-30.25L535.14-30.25 535.14-23.55 542.5-23.55Q542.79-23.15 542.79-22.6L542.79-22.6Q542.79-21.5 541.19-20.68 539.6-19.85 535.89-19.85L535.89-19.85 535.14-19.85 535.14 5.8Q535.14 9.25 533.67 10.98 532.19 12.7 529.89 12.7L529.89 12.7Q526.69 12.7 525.44 9.55L525.44 9.55Q527.94 9.55 528.92 8.45 529.89 7.35 529.89 4.75L529.89 4.75 529.89-19.9Q525.5-20.15 525.5-22.05L525.5-22.05Q525.5-23.05 526.29-23.75L526.29-23.75Q527.89-23.55 529.6-23.55L529.6-23.55ZM586.64-26.65L586.64-26.65Q586.64-23.75 584.96-21.8 583.29-19.85 580.29-19L580.29-19Q584.04-18.1 586.51-15.8 588.99-13.5 588.99-9.8L588.99-9.8Q588.99-5.15 584.89-2.35 580.79 0.45 573.84 0.45 566.89 0.45 563.86-1.35 560.84-3.15 560.84-6.95L560.84-6.95 560.89-30.95Q560.89-33.35 559.94-34.55L559.94-34.55Q565.59-36.55 572.51-36.55 579.44-36.55 583.04-33.8 586.64-31.05 586.64-26.65ZM566.14-20.2L573.19-20.2Q576.99-20.2 579.06-21.9 581.14-23.6 581.14-26.43 581.14-29.25 578.94-30.98 576.74-32.7 572.81-32.7 568.89-32.7 566.24-31.95L566.24-31.95 566.14-20.2ZM566.14-16.55L566.14-6.75Q566.14-3.3 573.59-3.3L573.59-3.3Q578.29-3.3 580.86-5.08 583.44-6.85 583.44-9.9 583.44-12.95 580.86-14.75 578.29-16.55 573.54-16.55L573.54-16.55 566.14-16.55ZM611.44-20.38Q609.34-23 606.21-23 603.09-23 601.44-20.7 599.79-18.4 599.79-14.1L599.79-14.1Q599.79-7.95 601.94-5.28 604.09-2.6 607.19-2.6 610.29-2.6 611.91-4.95 613.54-7.3 613.54-11.55L613.54-11.55Q613.54-17.75 611.44-20.38ZM594.49-12.83Q594.49-19.15 597.99-22.63 601.49-26.1 606.66-26.1 611.84-26.1 615.34-22.6 618.84-19.1 618.84-12.8 618.84-6.5 615.34-3.03 611.84 0.45 606.69 0.45 601.54 0.45 598.01-3.03 594.49-6.5 594.49-12.83ZM640.68-20.38Q638.58-23 635.46-23 632.33-23 630.68-20.7 629.03-18.4 629.03-14.1L629.03-14.1Q629.03-7.95 631.18-5.28 633.33-2.6 636.43-2.6 639.53-2.6 641.16-4.95 642.78-7.3 642.78-11.55L642.78-11.55Q642.78-17.75 640.68-20.38ZM623.73-12.83Q623.73-19.15 627.23-22.63 630.73-26.1 635.91-26.1 641.08-26.1 644.58-22.6 648.08-19.1 648.08-12.8 648.08-6.5 644.58-3.03 641.08 0.45 635.93 0.45 630.78 0.45 627.26-3.03 623.73-6.5 623.73-12.83ZM660.13-34.15L660.13-34.15 660.13-15.25Q670.58-19.9 670.58-26.1L670.58-26.1Q672.73-26.1 674.06-25.1 675.38-24.1 675.38-22.45L675.38-22.45Q675.38-19.85 672.41-17.63 669.43-15.4 664.18-13.75L664.18-13.75Q669.78-7.15 672.33-5.6L672.33-5.6Q673.78-4.65 674.73-4.4 675.68-4.15 677.03-4.15L677.03-4.15Q677.03-2.1 676.01-0.83 674.98 0.45 673.18 0.45L673.18 0.45Q670.73 0.45 668.21-2.13 665.68-4.7 660.13-12.5L660.13-12.5 660.13-3.7Q660.13-1.9 661.53-1.3L661.53-1.3Q660.23 0.45 658.33 0.45L658.33 0.45Q654.93 0.45 654.93-3.75L654.93-3.75 654.93-34.2Q654.93-35.95 653.53-36.65L653.53-36.65Q654.73-38.35 656.73-38.35L656.73-38.35Q660.13-38.35 660.13-34.15ZM701.28-20.8L701.28-20.8Q701.28-19.55 700.43-18.82 699.58-18.1 698.25-18.1 696.93-18.1 695.88-18.85L695.88-18.85Q696.13-19.35 696.13-20.35 696.13-21.35 695.08-22.15 694.03-22.95 692-22.95 689.98-22.95 688.78-22.05 687.58-21.15 687.58-19.83 687.58-18.5 689.05-17.43 690.53-16.35 692.63-15.43 694.73-14.5 696.85-13.45 698.98-12.4 700.45-10.75 701.93-9.1 701.93-7.1L701.93-7.1Q701.93-3.9 698.95-1.73 695.98 0.45 691.5 0.45 687.03 0.45 684.18-1.23 681.33-2.9 681.28-5.5L681.28-5.5Q681.28-7.15 682.28-8.08 683.28-9 684.75-9 686.23-9 687.18-7.9L687.18-7.9Q686.43-7 686.43-5.7 686.43-4.4 687.7-3.55 688.98-2.7 691.35-2.7 693.73-2.7 695.18-3.7 696.63-4.7 696.63-6.2 696.63-7.7 695.15-8.83 693.68-9.95 691.6-10.85 689.53-11.75 687.43-12.75 685.33-13.75 683.85-15.3 682.38-16.85 682.38-18.8L682.38-18.8Q682.38-21.85 685.15-23.98 687.93-26.1 691.83-26.1 695.73-26.1 698.5-24.63 701.28-23.15 701.28-20.8Z" opacity="1" transform="matrix(1,0,0,1,0,0)" fill="#ffffff" class="undefined-text-1" data-fill-palette-color="secondary" id="text-1"></path></svg></g></svg></g></svg></g></svg></g><g><svg viewBox="0 0 75.80808046289529 114.99149165742905" height="114.99149165742905" width="75.80808046289529"><g><svg xmlns="http://www.w3.org/2000/svg" xmlns:xlink="http://www.w3.org/1999/xlink" version="1.1" x="0" y="0" viewBox="19.379079818725586 3.072000026702881 62.31291198730469 94.52098846435547" enable-background="new 0 0 100 100" xml:space="preserve" height="114.99149165742905" width="75.80808046289529" class="icon-icon-0" data-fill-palette-color="accent" id="icon-0"><path d="M73.854 7.813V3.072l-42.788 8.963c-12.435-1.057-11.678 9.918-11.678 9.918v44.843c0.139 11.492 11.678 10.379 11.678 10.379l3.992 0.904v19.506l5.559-6.844 5.468 6.852v-17.01l27.769 6.303V81.32h7.838V7.813H73.854zM44.777 93.578l-4.175-5.49-4.245 5.49V78.377l8.42 1.91V93.578zM72.461 84.754l-40.608-9.223c0 0-10.833 1.508-10.833-10.025V23.123c0 0-0.729-11.253 10.833-9.414l40.608-8.503V84.754zM80.355 79.982h-6.502v-2.066h3.516V11.247h-3.516V9.161h6.502V79.982z" fill="#ffffff" data-fill-palette-color="accent"></path><path d="M30.46 17.136c0-0.297-0.241-0.538-0.538-0.538-0.297 0-0.538 0.241-0.538 0.538h-0.002v56.116h0.002c0 0.297 0.241 0.539 0.538 0.539 0.297 0 0.538-0.242 0.538-0.539h0.001V17.136H30.46z" fill="#ffffff" data-fill-palette-color="accent"></path></svg></g></svg></g></svg></g><defs></defs></svg><rect width="395.52" height="90.69727704403562" fill="none" stroke="none" visibility="hidden"></rect></g></svg></g></svg>